<svg version="1.2" xmlns="http://www.w3.org/2000/svg" viewBox="0 0 25 26" width="25" height="26"><defs><clipPath clipPathUnits="userSpaceOnUse" id="cp1"><path d="m-20-365h1366v768h-1366z"/></clipPath></defs><style>.a{fill:#f4f0ed}</style><g clip-path="url(#cp1)"><path fill-rule="evenodd" class="a" d="m18.9 20.9h1.7v3.4q-0.1 0.7-0.5 1.2-0.5 0.5-1.2 0.5h-17.2c-0.9 0-1.7-0.8-1.7-1.7v-18.9c0-0.9 0.8-1.7 1.7-1.7h5.2c0-1.9 1.5-3.4 3.4-3.4 1.9 0 3.4 1.5 3.4 3.4h5.2c0.9 0 1.7 0.8 1.7 1.7v8.6h-1.7v-5.1h-17.2v15.4h17.2zm-6.9-8.6h-8.6v-1.7h8.6zm12 3.4v3.5h-8.6v3.4l-5.1-5.2 5.1-5.1v3.4zm-16.3 0h-4.2v-1.7h4.2zm-4.2 1.7h4.2v1.7h-4.2zm0 3.5h6.8v1.7h-6.8zm0-13.7h13.7c0-1-0.8-1.7-1.7-1.7h-1.8c-0.9 0-1.7-0.8-1.7-1.8 0-0.9-0.7-1.7-1.7-1.7-0.9 0-1.7 0.8-1.7 1.7 0 1-0.8 1.8-1.7 1.8h-1.7c-1 0-1.7 0.7-1.7 1.7z"/></g></svg>