<svg version="1.2" xmlns="http://www.w3.org/2000/svg" viewBox="0 0 24 24" width="24" height="24"><defs><clipPath clipPathUnits="userSpaceOnUse" id="cp1"><path d="m-20-177h1366v768h-1366z"/></clipPath></defs><style>.a{fill:#f4f0ed}</style><g clip-path="url(#cp1)"><path fill-rule="evenodd" class="a" d="m12 24c-6.6 0-12-5.3-12-12 0-6.6 5.3-12 11.9-12 6.7 0 12.1 5.3 12.1 12 0 6.6-5.3 12-12 12zm0-1.1c6.1 0 10.9-4.8 10.9-10.9 0-6-4.8-10.9-10.9-10.9-6-0.1-10.9 4.8-10.9 10.9-0.1 6.1 4.8 11 10.9 10.9z"/><path class="a" d="m12.2 8.6v2.7h6.8v1.4h-6.8v2.7c-1.5-1.1-3-2.2-4.5-3.3 1.5-1.2 3-2.4 4.5-3.5z"/><path class="a" d="m6 7.4v9.2h-1v-9.2z"/></g></svg>