<svg version="1.2" xmlns="http://www.w3.org/2000/svg" viewBox="0 0 24 25" width="24" height="25">
	<title>yellow-ico-svg</title>
	<defs>
		<clipPath clipPathUnits="userSpaceOnUse" id="cp1">
			<path d="m-373-113h1366v768h-1366z"/>
		</clipPath>
	</defs>
	<style>
		.s0 { fill: #ffc400 } 
	</style>
	<g id="Clip-Path" clip-path="url(#cp1)">
		<g id="Layer">
			<path id="Layer" fill-rule="evenodd" class="s0" d="m12 24.7c-6.6 0-12-5.3-12-12 0-6.6 5.3-12 11.9-12 6.7 0 12.1 5.3 12.1 12 0 6.6-5.3 12-12 12zm0-1.1c6.1 0 10.9-4.8 10.9-10.9 0-6-4.8-10.9-10.9-10.9-6-0.1-10.9 4.8-10.9 10.9-0.1 6.1 4.8 11 10.9 10.9z"/>
			<path id="Layer" class="s0" d="m12.2 9.3v2.7h6.8v1.4h-6.8v2.7q-2.3-1.6-4.5-3.3c1.5-1.2 3-2.4 4.5-3.5z"/>
			<path id="Layer" class="s0" d="m6 8.1v9.2h-1v-9.2z"/>
		</g>
	</g>
</svg>